# xmcd
#
# Track frame offsets: 
#        150
#        15180
#        39662
#        61302
#        75852
#        94062
#        109942
#        129062
#        145585
#        158555
#
# Disc length: 2455 seconds
#
# Revision: 3
# Processed by: cddbd v1.5.2PL0 Copyright (c) Steve Scherf et al.
# Submitted via: ExactAudioCopy v0.99pb4
#
DISCID=6509950a
DTITLE=Otis Rush - Right Place, Wrong Time
DYEAR=1985
DGENRE=blues
TTITLE0=Tore Up
TTITLE1=Right Place, Wrong Time
TTITLE2=Easy Go
TTITLE3=Three Times A Fool
TTITLE4=Rainy Night In Georgia
TTITLE5=Natural Ball
TTITLE6=I Wonder Why
TTITLE7=Your Turn To Cry
TTITLE8=Lonely Man
TTITLE9=Take A Look Behind
EXTD=HCD 8007\n\nSubmitted 6/25/97\n[Jmccoy@efn.org]
EXTT0=
EXTT1=
EXTT2=
EXTT3=
EXTT4=
EXTT5=
EXTT6=
EXTT7=
EXTT8=
EXTT9=
PLAYORDER=
